<mxfile host="app.diagrams.net" modified="2024-02-16T14:42:30.932Z" agent="Mozilla/5.0 (Windows NT 10.0; Win64; x64) AppleWebKit/537.36 (KHTML, like Gecko) Chrome/121.0.0.0 Safari/537.36" etag="VGzKFT1ZtaUvXqCl2mz1" version="23.1.5" type="device">
  <diagram name="Page-1" id="uBdTVxRA-wW-9CoV8ZLu">
    <mxGraphModel dx="1313" dy="864" grid="1" gridSize="10" guides="1" tooltips="1" connect="1" arrows="1" fold="1" page="1" pageScale="1" pageWidth="850" pageHeight="1100" math="0" shadow="0">
      <root>
        <mxCell id="0" />
        <mxCell id="1" parent="0" />
        <mxCell id="-YIKbDmSA9hkehv4vWIk-1" value="&lt;font style=&quot;font-size: 18px;&quot;&gt;User&lt;/font&gt;" style="shape=umlActor;verticalLabelPosition=bottom;verticalAlign=top;html=1;outlineConnect=0;" vertex="1" parent="1">
          <mxGeometry x="90" y="260" width="40" height="80" as="geometry" />
        </mxCell>
        <mxCell id="-YIKbDmSA9hkehv4vWIk-8" value="" style="whiteSpace=wrap;html=1;aspect=fixed;" vertex="1" parent="1">
          <mxGeometry x="210" y="250" width="110" height="110" as="geometry" />
        </mxCell>
        <mxCell id="-YIKbDmSA9hkehv4vWIk-9" value="&lt;font style=&quot;font-size: 14px;&quot;&gt;&lt;b&gt;Home Page&lt;/b&gt;&lt;/font&gt;" style="rounded=0;whiteSpace=wrap;html=1;" vertex="1" parent="1">
          <mxGeometry x="220" y="275" width="90" height="25" as="geometry" />
        </mxCell>
        <mxCell id="-YIKbDmSA9hkehv4vWIk-13" value="" style="endArrow=classic;html=1;rounded=0;" edge="1" parent="1">
          <mxGeometry width="50" height="50" relative="1" as="geometry">
            <mxPoint x="120" y="304.5" as="sourcePoint" />
            <mxPoint x="200" y="305" as="targetPoint" />
            <Array as="points">
              <mxPoint x="140" y="304.5" />
            </Array>
          </mxGeometry>
        </mxCell>
        <mxCell id="-YIKbDmSA9hkehv4vWIk-17" value="&lt;font style=&quot;font-size: 14px;&quot;&gt;&lt;b&gt;Registration&lt;/b&gt;&lt;/font&gt;" style="rounded=0;whiteSpace=wrap;html=1;" vertex="1" parent="1">
          <mxGeometry x="220" y="310" width="90" height="30" as="geometry" />
        </mxCell>
        <mxCell id="-YIKbDmSA9hkehv4vWIk-18" value="" style="endArrow=classic;html=1;rounded=0;exitX=1;exitY=0.5;exitDx=0;exitDy=0;" edge="1" parent="1" source="-YIKbDmSA9hkehv4vWIk-8">
          <mxGeometry width="50" height="50" relative="1" as="geometry">
            <mxPoint x="330" y="304.5" as="sourcePoint" />
            <mxPoint x="410" y="305" as="targetPoint" />
          </mxGeometry>
        </mxCell>
        <mxCell id="-YIKbDmSA9hkehv4vWIk-19" value="Click Reg" style="text;html=1;align=center;verticalAlign=middle;resizable=0;points=[];autosize=1;strokeColor=none;fillColor=none;" vertex="1" parent="1">
          <mxGeometry x="330" y="310" width="70" height="30" as="geometry" />
        </mxCell>
        <mxCell id="-YIKbDmSA9hkehv4vWIk-20" value="" style="strokeWidth=2;html=1;shape=mxgraph.flowchart.annotation_1;align=left;pointerEvents=1;" vertex="1" parent="1">
          <mxGeometry x="410" y="255" width="50" height="100" as="geometry" />
        </mxCell>
        <mxCell id="-YIKbDmSA9hkehv4vWIk-21" value="&lt;font style=&quot;font-size: 14px;&quot;&gt;Register As Customer&lt;/font&gt;" style="whiteSpace=wrap;html=1;aspect=fixed;" vertex="1" parent="1">
          <mxGeometry x="460" y="210" width="80" height="80" as="geometry" />
        </mxCell>
        <mxCell id="-YIKbDmSA9hkehv4vWIk-22" value="&lt;font style=&quot;font-size: 14px;&quot;&gt;Register As Service provider&lt;/font&gt;" style="whiteSpace=wrap;html=1;aspect=fixed;" vertex="1" parent="1">
          <mxGeometry x="460" y="330" width="80" height="80" as="geometry" />
        </mxCell>
        <mxCell id="-YIKbDmSA9hkehv4vWIk-23" value="&lt;font style=&quot;font-size: 14px;&quot;&gt;&lt;b&gt;Validation&lt;/b&gt;&lt;/font&gt;" style="whiteSpace=wrap;html=1;aspect=fixed;" vertex="1" parent="1">
          <mxGeometry x="600" y="260" width="90" height="90" as="geometry" />
        </mxCell>
        <mxCell id="-YIKbDmSA9hkehv4vWIk-24" value="" style="endArrow=classic;html=1;rounded=0;entryX=-0.031;entryY=0.156;entryDx=0;entryDy=0;entryPerimeter=0;" edge="1" parent="1" target="-YIKbDmSA9hkehv4vWIk-23">
          <mxGeometry width="50" height="50" relative="1" as="geometry">
            <mxPoint x="540" y="275" as="sourcePoint" />
            <mxPoint x="620" y="275" as="targetPoint" />
          </mxGeometry>
        </mxCell>
        <mxCell id="-YIKbDmSA9hkehv4vWIk-25" value="" style="endArrow=classic;html=1;rounded=0;" edge="1" parent="1">
          <mxGeometry width="50" height="50" relative="1" as="geometry">
            <mxPoint x="540" y="340" as="sourcePoint" />
            <mxPoint x="600" y="340" as="targetPoint" />
          </mxGeometry>
        </mxCell>
        <mxCell id="-YIKbDmSA9hkehv4vWIk-27" value="" style="endArrow=classic;html=1;rounded=0;" edge="1" parent="1">
          <mxGeometry width="50" height="50" relative="1" as="geometry">
            <mxPoint x="650" y="260" as="sourcePoint" />
            <mxPoint x="540" y="220" as="targetPoint" />
            <Array as="points">
              <mxPoint x="650" y="220" />
            </Array>
          </mxGeometry>
        </mxCell>
        <mxCell id="-YIKbDmSA9hkehv4vWIk-29" value="&lt;font style=&quot;font-size: 12px;&quot;&gt;Invalid&lt;/font&gt;" style="edgeLabel;html=1;align=center;verticalAlign=middle;resizable=0;points=[];" vertex="1" connectable="0" parent="-YIKbDmSA9hkehv4vWIk-27">
          <mxGeometry x="-0.104" y="2" relative="1" as="geometry">
            <mxPoint x="-23" y="-2" as="offset" />
          </mxGeometry>
        </mxCell>
        <mxCell id="-YIKbDmSA9hkehv4vWIk-28" value="" style="endArrow=classic;html=1;rounded=0;entryX=1.015;entryY=0.9;entryDx=0;entryDy=0;entryPerimeter=0;" edge="1" parent="1" target="-YIKbDmSA9hkehv4vWIk-22">
          <mxGeometry width="50" height="50" relative="1" as="geometry">
            <mxPoint x="650" y="350" as="sourcePoint" />
            <mxPoint x="550" y="400" as="targetPoint" />
            <Array as="points">
              <mxPoint x="650" y="400" />
            </Array>
          </mxGeometry>
        </mxCell>
        <mxCell id="-YIKbDmSA9hkehv4vWIk-30" value="&lt;font style=&quot;font-size: 12px;&quot;&gt;Invalid&lt;/font&gt;" style="edgeLabel;html=1;align=center;verticalAlign=middle;resizable=0;points=[];" vertex="1" connectable="0" parent="1">
          <mxGeometry x="600" y="400" as="geometry" />
        </mxCell>
        <mxCell id="-YIKbDmSA9hkehv4vWIk-31" value="&lt;span style=&quot;font-size: 14px;&quot;&gt;&lt;b&gt;RestApi&lt;br&gt;Endpoint using SpringBoot&lt;br&gt;&lt;/b&gt;&lt;/span&gt;" style="whiteSpace=wrap;html=1;aspect=fixed;" vertex="1" parent="1">
          <mxGeometry x="750" y="260" width="90" height="90" as="geometry" />
        </mxCell>
        <mxCell id="-YIKbDmSA9hkehv4vWIk-32" value="" style="endArrow=classic;html=1;rounded=0;exitX=1;exitY=0.494;exitDx=0;exitDy=0;exitPerimeter=0;" edge="1" parent="1" source="-YIKbDmSA9hkehv4vWIk-23">
          <mxGeometry width="50" height="50" relative="1" as="geometry">
            <mxPoint x="700" y="304.5" as="sourcePoint" />
            <mxPoint x="750" y="304.5" as="targetPoint" />
          </mxGeometry>
        </mxCell>
        <mxCell id="-YIKbDmSA9hkehv4vWIk-37" value="Post" style="edgeLabel;html=1;align=center;verticalAlign=middle;resizable=0;points=[];" vertex="1" connectable="0" parent="-YIKbDmSA9hkehv4vWIk-32">
          <mxGeometry x="-0.1778" y="-1" relative="1" as="geometry">
            <mxPoint as="offset" />
          </mxGeometry>
        </mxCell>
        <mxCell id="-YIKbDmSA9hkehv4vWIk-38" value="" style="endArrow=classic;html=1;rounded=0;" edge="1" parent="1">
          <mxGeometry width="50" height="50" relative="1" as="geometry">
            <mxPoint x="840" y="290.00000000000006" as="sourcePoint" />
            <mxPoint x="900" y="290.00000000000006" as="targetPoint" />
          </mxGeometry>
        </mxCell>
        <mxCell id="-YIKbDmSA9hkehv4vWIk-39" value="&lt;font style=&quot;font-size: 14px;&quot;&gt;&lt;b&gt;JPA&amp;nbsp;&lt;/b&gt;&lt;/font&gt;" style="whiteSpace=wrap;html=1;aspect=fixed;" vertex="1" parent="1">
          <mxGeometry x="900" y="265" width="80" height="80" as="geometry" />
        </mxCell>
        <mxCell id="-YIKbDmSA9hkehv4vWIk-40" value="&lt;b&gt;&lt;font style=&quot;font-size: 14px;&quot;&gt;DataBase&lt;/font&gt;&lt;/b&gt;" style="shape=cylinder3;whiteSpace=wrap;html=1;boundedLbl=1;backgroundOutline=1;size=15;" vertex="1" parent="1">
          <mxGeometry x="1050" y="260" width="80" height="90" as="geometry" />
        </mxCell>
        <mxCell id="-YIKbDmSA9hkehv4vWIk-41" value="" style="endArrow=classic;html=1;rounded=0;exitX=0;exitY=0.75;exitDx=0;exitDy=0;" edge="1" parent="1" source="-YIKbDmSA9hkehv4vWIk-39">
          <mxGeometry width="50" height="50" relative="1" as="geometry">
            <mxPoint x="890" y="324" as="sourcePoint" />
            <mxPoint x="840" y="324.38" as="targetPoint" />
          </mxGeometry>
        </mxCell>
        <mxCell id="-YIKbDmSA9hkehv4vWIk-42" value="" style="endArrow=classic;html=1;rounded=0;" edge="1" parent="1">
          <mxGeometry width="50" height="50" relative="1" as="geometry">
            <mxPoint x="1050" y="324.38" as="sourcePoint" />
            <mxPoint x="980" y="324.38" as="targetPoint" />
          </mxGeometry>
        </mxCell>
        <mxCell id="-YIKbDmSA9hkehv4vWIk-43" value="" style="endArrow=classic;html=1;rounded=0;" edge="1" parent="1">
          <mxGeometry width="50" height="50" relative="1" as="geometry">
            <mxPoint x="980" y="290" as="sourcePoint" />
            <mxPoint x="1050" y="290" as="targetPoint" />
          </mxGeometry>
        </mxCell>
        <mxCell id="-YIKbDmSA9hkehv4vWIk-47" value="" style="rhombus;whiteSpace=wrap;html=1;" vertex="1" parent="1">
          <mxGeometry x="900" y="450" width="80" height="80" as="geometry" />
        </mxCell>
        <mxCell id="-YIKbDmSA9hkehv4vWIk-48" value="" style="endArrow=classic;html=1;rounded=0;" edge="1" parent="1">
          <mxGeometry width="50" height="50" relative="1" as="geometry">
            <mxPoint x="898" y="489.37" as="sourcePoint" />
            <mxPoint x="738" y="489.37" as="targetPoint" />
          </mxGeometry>
        </mxCell>
        <mxCell id="-YIKbDmSA9hkehv4vWIk-51" value="&lt;font style=&quot;font-size: 12px;&quot;&gt;Successfull&lt;/font&gt;" style="edgeLabel;html=1;align=center;verticalAlign=middle;resizable=0;points=[];" vertex="1" connectable="0" parent="-YIKbDmSA9hkehv4vWIk-48">
          <mxGeometry x="-0.2375" y="-1" relative="1" as="geometry">
            <mxPoint x="-7" as="offset" />
          </mxGeometry>
        </mxCell>
        <mxCell id="-YIKbDmSA9hkehv4vWIk-49" value="" style="endArrow=classic;html=1;rounded=0;entryX=0.5;entryY=0;entryDx=0;entryDy=0;" edge="1" parent="1" target="-YIKbDmSA9hkehv4vWIk-47">
          <mxGeometry width="50" height="50" relative="1" as="geometry">
            <mxPoint x="939.38" y="345" as="sourcePoint" />
            <mxPoint x="939.38" y="415" as="targetPoint" />
          </mxGeometry>
        </mxCell>
        <mxCell id="-YIKbDmSA9hkehv4vWIk-50" value="&lt;font style=&quot;font-size: 18px;&quot;&gt;Login&lt;/font&gt;" style="whiteSpace=wrap;html=1;aspect=fixed;" vertex="1" parent="1">
          <mxGeometry x="640" y="440" width="100" height="100" as="geometry" />
        </mxCell>
        <mxCell id="-YIKbDmSA9hkehv4vWIk-52" value="" style="endArrow=classic;html=1;rounded=0;exitX=1;exitY=0.5;exitDx=0;exitDy=0;" edge="1" parent="1" source="-YIKbDmSA9hkehv4vWIk-47">
          <mxGeometry width="50" height="50" relative="1" as="geometry">
            <mxPoint x="1050" y="515" as="sourcePoint" />
            <mxPoint x="1060" y="490" as="targetPoint" />
          </mxGeometry>
        </mxCell>
        <mxCell id="-YIKbDmSA9hkehv4vWIk-53" value="Failed To Register" style="text;html=1;align=center;verticalAlign=middle;resizable=0;points=[];autosize=1;strokeColor=none;fillColor=none;" vertex="1" parent="1">
          <mxGeometry x="1060" y="475" width="120" height="30" as="geometry" />
        </mxCell>
      </root>
    </mxGraphModel>
  </diagram>
</mxfile>
